<svg width="32" height="27" viewBox="0 0 32 27" fill="none" xmlns="http://www.w3.org/2000/svg">
<g clip-path="url(#clip0_22305_931)">
<path d="M31.4621 9.09525C31.2757 10.3604 30.9428 11.7586 30.3745 13.219C29.2338 16.1576 27.6757 18.0175 27.2052 18.5591C26.273 19.6244 25.0079 21.0494 22.8417 22.0126C21.6432 22.5453 20.6045 22.745 20.0451 22.8294C19.6545 22.887 18.7224 23.0024 17.364 22.8471C16.707 22.5585 15.9524 22.1191 15.3044 21.4489C14.8028 20.9294 14.5098 20.4234 14.3633 20.1615C13.8439 19.2427 13.6886 18.4659 13.6398 18.2129C13.5465 17.6979 13.4889 17.3606 13.6087 16.9255C13.6575 16.7347 13.8395 16.1709 14.3633 15.7936C14.6607 15.5761 14.9581 15.5095 15.0869 15.4784C16.4452 15.1855 24.6439 14.0714 28.084 12.6198C28.6035 12.4023 29.4557 11.9894 30.2192 11.1727C30.9428 10.4003 31.2712 9.61905 31.3511 9.41486C31.3956 9.29944 31.4355 9.19291 31.4666 9.09082L31.4621 9.09525Z" fill="url(#paint0_linear_22305_931)"/>
<path d="M31.471 2.51245C31.471 2.53908 31.471 2.56571 31.4622 2.59235C30.8851 2.93415 29.8242 4.38124 27.8267 5.87272C26.7259 6.69837 25.7493 7.22216 25.19 7.50625C24.8793 7.66162 24.1912 7.99453 23.1169 8.38516C22.2381 8.70477 20.467 9.33509 18.2164 9.64139C17.333 9.76124 14.4299 10.0942 10.7457 9.29514C8.63717 8.83794 6.11141 8.29194 3.58564 6.31217C1.94324 5.02932 0.900088 3.60442 0.269758 2.58346C0.265319 2.53908 0.26088 2.49024 0.26088 2.44586C0.225369 1.06091 7.0791 0 15.9615 0C24.8437 0 31.471 1.12305 31.471 2.51245Z" fill="url(#paint1_linear_22305_931)"/>
<path d="M31.5996 8.5719C31.5597 8.7539 31.5196 8.91814 31.462 9.09126C31.4309 9.19335 31.391 9.30433 31.3466 9.4153C31.2666 9.61949 30.9427 10.4007 30.2147 11.1731C29.4512 11.9854 28.5988 12.3983 28.0795 12.6202C24.6393 14.0718 16.4361 15.1815 15.0823 15.4788C14.9535 15.5055 14.6605 15.5765 14.3587 15.794C13.8394 16.1714 13.6574 16.7351 13.6041 16.926C13.4887 17.361 13.542 17.6984 13.6352 18.2133C13.6795 18.4619 13.8394 19.2431 14.3587 20.1619C14.5052 20.4239 14.7982 20.93 15.2998 21.4493C15.9479 22.1195 16.7025 22.559 17.3595 22.8475C18.083 23.1671 18.6822 23.2959 18.8775 23.3314C19.5966 23.4779 20.1027 23.4601 20.1338 23.6465C20.1737 23.8995 19.3171 24.2591 18.7222 24.4322C17.7456 24.7164 16.9155 24.6542 16.4628 24.6187C14.2167 24.4589 12.4145 23.793 11.9394 23.6154C10.3415 23.0074 9.17847 22.2927 8.61028 21.9198C8.04654 21.5514 5.58293 19.8868 3.46111 16.7084C0.784432 12.6957 0.305027 8.80272 0.131908 7.2269C-0.0856003 5.22494 0.00317848 3.54258 0.131908 2.36182C0.176298 2.43728 0.220687 2.5083 0.269515 2.58821C0.899844 3.6136 1.94744 5.03406 3.5854 6.31691C6.11117 8.29668 8.63692 8.84267 10.7454 9.29988C14.4297 10.0989 17.3372 9.76598 18.2161 9.64613C20.4623 9.33983 22.2378 8.70951 23.1167 8.38991C24.191 7.99927 24.8745 7.66636 25.1897 7.51099C25.7491 7.23134 26.7256 6.70311 27.8265 5.87746C29.8196 4.38598 30.8805 2.93889 31.462 2.59708C31.5907 2.52163 31.6972 2.49943 31.7816 2.54826C31.9014 2.61484 31.9191 2.78352 31.9369 3.20522C32.079 6.3613 31.7062 8.08361 31.5907 8.57634L31.5996 8.5719Z" fill="url(#paint2_linear_22305_931)"/>
</g>
<defs>
<linearGradient id="paint0_linear_22305_931" x1="13.5421" y1="16.0111" x2="31.4621" y2="16.0111" gradientUnits="userSpaceOnUse">
<stop offset="0.27" stop-color="#6B5CA7"/>
<stop offset="0.43" stop-color="#6E5FA8"/>
<stop offset="0.58" stop-color="#7968AD"/>
<stop offset="0.72" stop-color="#8B77B5"/>
<stop offset="0.86" stop-color="#A48DC1"/>
<stop offset="0.99" stop-color="#C5A9D0"/>
<stop offset="1" stop-color="#C8ACD2"/>
</linearGradient>
<linearGradient id="paint1_linear_22305_931" x1="1.81451" y1="17.2941" x2="22.2647" y2="-4.35904" gradientUnits="userSpaceOnUse">
<stop offset="0.3" stop-color="#6456A4"/>
<stop offset="0.46" stop-color="#6B5CA7"/>
<stop offset="0.56" stop-color="#7060A9"/>
<stop offset="0.7" stop-color="#806DB0"/>
<stop offset="0.85" stop-color="#9A82BB"/>
<stop offset="1" stop-color="#BC9ECA"/>
</linearGradient>
<linearGradient id="paint2_linear_22305_931" x1="4.82387" y1="18.6705" x2="25.5848" y2="-3.32002" gradientUnits="userSpaceOnUse">
<stop offset="0.15" stop-color="#9B84BD"/>
<stop offset="0.2" stop-color="#A088BF"/>
<stop offset="0.27" stop-color="#B096C6"/>
<stop offset="0.33" stop-color="#C8ACD2"/>
<stop offset="0.65" stop-color="#FFF9FB"/>
</linearGradient>
<clipPath id="clip0_22305_931">
<rect width="31.9687" height="25.3545" fill="white"/>
</clipPath>
</defs>
</svg>
